<mxfile host="app.diagrams.net" agent="Mozilla/5.0 (Windows NT 10.0; Win64; x64) AppleWebKit/537.36 (KHTML, like Gecko) Chrome/133.0.0.0 Safari/537.36" version="26.0.16">
  <diagram name="Página-1" id="ELgCCSQ3vU8TT_oHeod-">
    <mxGraphModel grid="1" page="1" gridSize="10" guides="1" tooltips="1" connect="1" arrows="1" fold="1" pageScale="1" pageWidth="827" pageHeight="1169" math="0" shadow="0">
      <root>
        <mxCell id="0" />
        <mxCell id="1" parent="0" />
        <mxCell id="89Oz6RSn7IpGibuwqFl3-3" style="edgeStyle=orthogonalEdgeStyle;rounded=0;orthogonalLoop=1;jettySize=auto;html=1;exitX=1;exitY=0.5;exitDx=0;exitDy=0;exitPerimeter=0;" edge="1" parent="1" source="89Oz6RSn7IpGibuwqFl3-1" target="89Oz6RSn7IpGibuwqFl3-2">
          <mxGeometry relative="1" as="geometry" />
        </mxCell>
        <mxCell id="89Oz6RSn7IpGibuwqFl3-1" value="INICIO" style="html=1;dashed=0;whiteSpace=wrap;shape=mxgraph.dfd.start" vertex="1" parent="1">
          <mxGeometry x="80" y="140" width="80" height="30" as="geometry" />
        </mxCell>
        <mxCell id="89Oz6RSn7IpGibuwqFl3-5" style="edgeStyle=orthogonalEdgeStyle;rounded=0;orthogonalLoop=1;jettySize=auto;html=1;entryX=0;entryY=0.25;entryDx=0;entryDy=0;" edge="1" parent="1" source="89Oz6RSn7IpGibuwqFl3-2" target="89Oz6RSn7IpGibuwqFl3-12">
          <mxGeometry relative="1" as="geometry">
            <mxPoint x="349.9999999999999" y="155" as="targetPoint" />
            <Array as="points">
              <mxPoint x="325" y="155" />
              <mxPoint x="380" y="156" />
            </Array>
          </mxGeometry>
        </mxCell>
        <mxCell id="89Oz6RSn7IpGibuwqFl3-2" value="Leia um numero inteiro (N)&amp;nbsp;" style="html=1;strokeWidth=2;shape=manualInput;whiteSpace=wrap;rounded=1;size=26;arcSize=11;" vertex="1" parent="1">
          <mxGeometry x="200" y="125" width="100" height="60" as="geometry" />
        </mxCell>
        <mxCell id="89Oz6RSn7IpGibuwqFl3-6" value="Resultado&lt;div&gt;da soma&lt;/div&gt;" style="shape=parallelogram;perimeter=parallelogramPerimeter;whiteSpace=wrap;html=1;dashed=0;" vertex="1" parent="1">
          <mxGeometry x="520" y="80" width="100" height="50" as="geometry" />
        </mxCell>
        <mxCell id="89Oz6RSn7IpGibuwqFl3-8" value="FIm" style="html=1;dashed=0;whiteSpace=wrap;shape=mxgraph.dfd.start" vertex="1" parent="1">
          <mxGeometry x="690" y="90" width="80" height="30" as="geometry" />
        </mxCell>
        <mxCell id="89Oz6RSn7IpGibuwqFl3-9" style="edgeStyle=orthogonalEdgeStyle;rounded=0;orthogonalLoop=1;jettySize=auto;html=1;entryX=0;entryY=0.5;entryDx=0;entryDy=0;entryPerimeter=0;" edge="1" parent="1" source="89Oz6RSn7IpGibuwqFl3-6" target="89Oz6RSn7IpGibuwqFl3-8">
          <mxGeometry relative="1" as="geometry" />
        </mxCell>
        <mxCell id="89Oz6RSn7IpGibuwqFl3-14" style="edgeStyle=orthogonalEdgeStyle;rounded=0;orthogonalLoop=1;jettySize=auto;html=1;entryX=0.25;entryY=1;entryDx=0;entryDy=0;" edge="1" parent="1" source="89Oz6RSn7IpGibuwqFl3-12" target="89Oz6RSn7IpGibuwqFl3-6">
          <mxGeometry relative="1" as="geometry" />
        </mxCell>
        <mxCell id="89Oz6RSn7IpGibuwqFl3-12" value="Some todos os numeros de 1 até N" style="rounded=1;whiteSpace=wrap;html=1;absoluteArcSize=1;arcSize=14;strokeWidth=2;" vertex="1" parent="1">
          <mxGeometry x="364" y="140" width="100" height="40" as="geometry" />
        </mxCell>
      </root>
    </mxGraphModel>
  </diagram>
</mxfile>
